<?xml version="1.0" encoding="utf-8"?>
<!-- Generator: Adobe Illustrator 24.2.0, SVG Export Plug-In . SVG Version: 6.00 Build 0)  -->
<svg version="1.1" id="Layer_1" xmlns="http://www.w3.org/2000/svg" xmlns:xlink="http://www.w3.org/1999/xlink" x="0px" y="0px"
	 viewBox="0 0 341.98 146.91" style="enable-background:new 0 0 341.98 146.91;" xml:space="preserve">
<style type="text/css">
	.st0{fill:#FFFFFF;}
	.st1{fill:#CCCCCB;}
</style>
<polygon class="st0" points="26.4,29.47 12.4,29.47 12.4,124.47 107.4,124.47 107.4,98.47 94.4,98.47 94.4,111.47 26.4,111.47 "/>
<g>
	<path class="st1" d="M115.19,36.8h-8.14v48.18H92.64V71.67c-1.1,1.03-2.79,1.54-5.06,1.54c-4.18,0-7.75-1.39-10.72-4.18
		c-2.97-2.79-4.49-6.23-4.56-10.34c-0.07-4.62,1.23-8.51,3.93-11.66c2.69-3.15,6.32-4.73,10.89-4.73c2.29,0,4.13,0.51,5.53,1.54
		V36.8H66.02c2.13,0.51,3.85,1.91,5.17,4.18c1.32,2.27,1.98,4.58,1.98,6.93c0,4.69-2.24,8.25-6.71,10.67
		c-3.37,1.83-7.7,2.86-12.98,3.08c4.62,1.03,8.69,4.07,12.21,9.13c4.62,6.6,8.98,9.9,13.09,9.9c2.64,0,5.61-0.99,8.91-2.97
		l-2.97,9.68c-3.89,1.25-7.55,1.87-11,1.87c-6.6,0-12.54-2.46-17.82-7.37c-0.37-0.29-4.03-4.69-11-13.2
		c-3.01-3.67-5.76-5.5-8.25-5.5c-0.51,0-1.03,0-1.54,0l0.11-10.34c4.55,2.2,8.58,3.3,12.1,3.3c3.08,0,5.65-0.92,7.7-2.75
		c2.05-1.83,3.08-4.29,3.08-7.37c0-4.62-1.83-7.7-5.5-9.24H33.9v-6.6h81.29V36.8z M92.64,63.64V51.87c-0.67-0.88-1.6-1.32-2.79-1.32
		c-3.5,0-5.24,2.49-5.24,7.48c0,1.83,0.41,3.41,1.23,4.73c0.97,1.61,2.34,2.42,4.13,2.42C91.31,65.18,92.2,64.66,92.64,63.64z"/>
	<path class="st1" d="M139.28,41.64l2.31,8.25c-1.98-1.17-3.92-1.76-5.83-1.76c-2.2,0-3.92,0.92-5.17,2.77l12.21,14.28V36.8h-29.81
		v-6.6h51.81v6.6h-7.92v48.18H142.8v-4.4c-1.47,1.25-4.57,1.87-9.27,1.87c-6.48,0-11.5-1.78-15.07-5.34
		c-3.57-3.56-5.39-8.56-5.46-15.01c-0.07-6.38,1.58-11.57,4.95-15.56c3.37-4,8.21-6,14.52-6C134.88,40.54,137.15,40.9,139.28,41.64z
		 M127.52,56.71c-0.29,1.69-0.44,3.3-0.44,4.84c0,3.37,0.7,6.23,2.11,8.58c1.7,2.79,4.14,4.18,7.32,4.18c1.55,0,2.96-0.44,4.21-1.32
		L127.52,56.71z"/>
	<path class="st1" d="M217.05,36.8h-22.11c2.13,0.51,3.85,1.91,5.17,4.18c1.32,2.27,1.98,4.58,1.98,6.93
		c0,4.69-2.24,8.25-6.71,10.67c-3.37,1.83-7.7,2.86-12.98,3.08c2.79,0.88,4.88,2.24,6.27,4.07c0.29,0.37,1.39,2.27,3.3,5.72
		c3.59,6.45,7.08,9.68,10.45,9.68c2.35,0,5.54-1.17,9.57-3.52l-2.97,9.46c-3.96,1.32-7.59,1.98-10.89,1.98
		c-6.01,0-11.22-2.24-15.62-6.71c-1.54-1.61-4.47-5.76-8.8-12.43c-2.86-4.47-5.5-6.71-7.92-6.71c-0.59,0-1.17,0-1.76,0V52.86
		c4.52,2.2,8.54,3.3,12.04,3.3c3.21,0,5.8-0.92,7.77-2.75c1.97-1.83,2.96-4.33,2.96-7.48c0-4.55-1.79-7.59-5.37-9.13h-18.61v-6.6
		h54.23V36.8z"/>
	<path class="st0" d="M219.58,63.64V36.8h-5.06v-6.6h55.88v6.6h-7.7v48.18h-13.31v-7.59c-3.23,2.64-7.04,3.96-11.44,3.96
		c-5.28,0-9.66-1.65-13.14-4.95C221.32,73.1,219.58,68.84,219.58,63.64z M249.39,67.27V36.8h-15.95v25.63
		c0,6.09,2.71,9.13,8.14,9.13C245.69,71.56,248.29,70.13,249.39,67.27z"/>
	<path class="st0" d="M303.95,69.36c-1.03-5.43-1.83-8.98-2.42-10.67c-1.47-4.18-3.59-6.45-6.38-6.82c-2.2-0.29-3.91,0.29-5.12,1.76
		c-1.21,1.47-1.82,3.34-1.82,5.61c0,1.54,0.26,3.26,0.77,5.17l-16.39-6.49c0.95-8.87,7.95-13.42,21.01-13.64
		c4.74-0.07,8.61,1.1,11.6,3.52c2.48,1.98,5.47,5.98,8.97,11.99V36.8h-45.76v-6.6h67.98v6.6h-7.7v48.18h-14.52V71.34
		c-13.93,12.1-25.01,18.15-33.22,18.15c-3.23,0-6.16-0.84-8.8-2.53l-1.87-10.45c4.25,2.64,7.74,3.96,10.45,3.96
		C285.8,80.47,293.53,76.76,303.95,69.36z"/>
</g>
<g>
	<path class="st0" d="M124.01,114.99l-1.39,0.04v8.44c-0.87,0.17-1.88,0.25-3.02,0.25c-1.15,0-2.18-0.08-3.11-0.25V92.86l0.29-0.29
		h2.44c1.23,0,2.11,0.29,2.62,0.86c0.52,0.57,0.78,1.55,0.78,2.92v13.52h0.76c0.5,0,0.9-0.25,1.18-0.76l2.39-4.41
		c0.76-1.54,1.93-2.31,3.53-2.31c0.81,0,1.97,0.03,3.49,0.08l0.25,0.34l-3.4,6.38c-0.53,0.98-1.23,1.76-2.1,2.35
		c1.68,0.62,2.87,1.83,3.57,3.65l1.05,3.11c0.45,1.2,0.8,2.03,1.07,2.48c0.27,0.45,0.58,0.8,0.94,1.05
		c-1.12,1.32-2.52,1.97-4.2,1.97c-0.9,0-1.58-0.21-2.04-0.63s-0.88-1.16-1.24-2.23l-1.26-3.7c-0.34-0.9-0.69-1.5-1.07-1.81
		C125.17,115.14,124.66,114.99,124.01,114.99z"/>
	<path class="st0" d="M156.06,109.57v8.74c0,1.79,0.32,3.18,0.97,4.16c-1.09,0.9-2.32,1.34-3.67,1.34c-1.36,0-2.29-0.32-2.79-0.97
		c-0.5-0.64-0.76-1.62-0.76-2.94v-9.16c0-1.04-0.14-1.79-0.42-2.25c-0.28-0.46-0.78-0.69-1.51-0.69c-1.18,0-2.31,0.53-3.4,1.6v14.07
		c-0.87,0.17-1.87,0.25-3,0.25c-1.13,0-2.18-0.08-3.13-0.25V92.86l0.29-0.29h2.44c1.23,0,2.11,0.29,2.62,0.86
		c0.52,0.57,0.78,1.55,0.78,2.92v8.23c1.9-1.6,3.81-2.39,5.71-2.39c1.9,0,3.36,0.67,4.37,2.02
		C155.56,105.54,156.06,107.33,156.06,109.57z"/>
	<path class="st0" d="M178.74,120.58c-0.11,0.56-0.37,1.16-0.78,1.81c-0.41,0.64-0.81,1.12-1.2,1.43c-1.93-0.08-3.39-0.83-4.37-2.23
		c-1.79,1.68-3.77,2.52-5.94,2.52c-2.17,0-3.81-0.64-4.91-1.93c-1.11-1.29-1.66-2.76-1.66-4.41c0-2.38,0.79-4.19,2.37-5.42
		c1.58-1.23,3.55-1.85,5.9-1.85c0.92,0,1.97,0.04,3.15,0.13v-0.92c0-1.85-0.95-2.77-2.86-2.77c-1.2,0-3.29,0.45-6.26,1.34
		c-0.84-0.98-1.34-2.44-1.51-4.37c1.32-0.56,2.88-1.01,4.68-1.34c1.81-0.34,3.41-0.5,4.81-0.5c2.1,0,3.86,0.58,5.27,1.74
		c1.41,1.16,2.12,2.96,2.12,5.4v8.57C177.56,119.08,177.96,120.02,178.74,120.58z M168.03,119.44c1.09,0,2.18-0.46,3.28-1.39v-3.49
		c-0.62-0.03-1.46-0.04-2.52-0.04c-1.88,0-2.81,0.94-2.81,2.81c0,0.59,0.19,1.08,0.57,1.49
		C166.92,119.24,167.41,119.44,168.03,119.44z"/>
	<path class="st0" d="M199.21,105.04c1.27,1.93,1.91,4.56,1.91,7.88c0,3.32-0.93,5.97-2.79,7.96c-1.86,1.99-4.33,2.98-7.41,2.98
		c-3.08,0-5.84-0.48-8.27-1.43V92.86l0.29-0.29h2.35c1.26,0,2.16,0.29,2.69,0.86c0.53,0.57,0.8,1.55,0.8,2.92v7.31
		c1.54-1.01,3.18-1.51,4.91-1.51C196.1,102.14,197.94,103.1,199.21,105.04z M191.89,107.18c-1.18,0-2.21,0.49-3.11,1.47v10.5
		c0.76,0.14,1.47,0.21,2.14,0.21c2.55,0,3.82-2.18,3.82-6.55C194.74,109.11,193.79,107.23,191.89,107.18z"/>
	<path class="st0" d="M222.67,120.58c-0.11,0.56-0.37,1.16-0.78,1.81c-0.41,0.64-0.8,1.12-1.2,1.43c-1.93-0.08-3.39-0.83-4.37-2.23
		c-1.79,1.68-3.77,2.52-5.94,2.52s-3.81-0.64-4.91-1.93s-1.66-2.76-1.66-4.41c0-2.38,0.79-4.19,2.37-5.42s3.55-1.85,5.9-1.85
		c0.92,0,1.97,0.04,3.15,0.13v-0.92c0-1.85-0.95-2.77-2.86-2.77c-1.2,0-3.29,0.45-6.26,1.34c-0.84-0.98-1.34-2.44-1.51-4.37
		c1.32-0.56,2.88-1.01,4.68-1.34s3.41-0.5,4.81-0.5c2.1,0,3.86,0.58,5.27,1.74c1.41,1.16,2.12,2.96,2.12,5.4v8.57
		C221.5,119.08,221.89,120.02,222.67,120.58z M211.96,119.44c1.09,0,2.18-0.46,3.28-1.39v-3.49c-0.62-0.03-1.46-0.04-2.52-0.04
		c-1.88,0-2.81,0.94-2.81,2.81c0,0.59,0.19,1.08,0.57,1.49C210.85,119.24,211.35,119.44,211.96,119.44z"/>
	<path class="st0" d="M225.36,105.46c0.11-0.56,0.36-1.16,0.76-1.81c0.39-0.64,0.78-1.12,1.18-1.43c2.49,0.25,4.2,1.51,5.12,3.78
		c1.06-2.49,2.83-3.74,5.29-3.74c0.92,0,1.83,0.11,2.73,0.34c0,0.81-0.14,1.79-0.42,2.92s-0.66,2.11-1.13,2.92
		c-0.59-0.2-1.29-0.32-2.1-0.38c-1.48,0-2.69,0.76-3.61,2.27v13.15c-0.84,0.17-1.86,0.25-3.07,0.25s-2.27-0.08-3.19-0.25v-13.69
		C226.91,107.68,226.39,106.24,225.36,105.46z"/>
	<path class="st1" d="M253.14,102.39c2.34,0,4.12,0.96,5.33,2.88c1.22,1.92,1.83,4.56,1.83,7.94c0,3.38-0.79,5.99-2.35,7.83
		c-1.57,1.85-3.32,2.77-5.25,2.77s-3.81-0.6-5.63-1.81v8.53c0,0.7-0.1,1.2-0.29,1.51c-0.2,0.31-0.6,0.46-1.22,0.46h-1.05l-0.25-0.25
		v-29.23l0.25-0.25h1.05c0.62,0,1.02,0.15,1.22,0.46c0.2,0.31,0.29,0.81,0.29,1.51v0.59C248.78,103.37,250.8,102.39,253.14,102.39z
		 M257.45,113c0-2.73-0.45-4.76-1.34-6.09c-0.9-1.33-1.93-2-3.09-2c-1.16,0-2.28,0.32-3.34,0.95c-1.06,0.63-1.93,1.48-2.6,2.54
		v10.92c1.88,1.32,3.57,1.97,5.08,1.97s2.77-0.7,3.78-2.1C256.94,117.79,257.45,115.73,257.45,113z"/>
	<path class="st1" d="M281.22,122.3c-0.28,0.7-0.73,1.19-1.34,1.47c-1.34-0.53-2.16-1.54-2.44-3.02c-2.16,2.16-4.38,3.23-6.68,3.23
		c-1.9,0-3.39-0.61-4.45-1.83s-1.6-2.64-1.6-4.26c0-2.24,0.7-3.92,2.1-5.04c1.4-1.12,3.32-1.68,5.75-1.68
		c1.65,0,3.23,0.14,4.75,0.42v-2.23c0-2.94-1.3-4.41-3.91-4.41c-1.99,0-4.28,0.59-6.89,1.76c-0.28-0.22-0.53-0.56-0.74-1.01
		c-0.21-0.45-0.32-0.87-0.32-1.26c2.94-1.32,5.66-1.97,8.15-1.97c4.28,0,6.43,2.32,6.43,6.97v8.65
		C280.04,120.14,280.43,121.54,281.22,122.3z M267.65,117.51c0,1.23,0.3,2.21,0.9,2.92c0.6,0.71,1.43,1.07,2.5,1.07
		s2.16-0.31,3.28-0.92c1.12-0.62,2.11-1.51,2.98-2.69v-4.16c-1.57-0.22-3.13-0.34-4.68-0.34s-2.77,0.38-3.65,1.13
		C268.09,115.28,267.65,116.28,267.65,117.51z"/>
	<path class="st1" d="M295.75,102.85c0.08,0.42,0.13,0.8,0.13,1.13s-0.04,0.7-0.13,1.09l-5.33-0.04v14.49
		c0,1.15,0.55,1.72,1.64,1.72h3.23c0.17,0.42,0.25,0.85,0.25,1.3s-0.01,0.73-0.04,0.84c-1.32,0.17-2.62,0.25-3.93,0.25
		s-2.29-0.29-2.96-0.86c-0.67-0.57-1.01-1.39-1.01-2.46v-15.29l-2.9,0.04c-0.08-0.36-0.13-0.72-0.13-1.07
		c0-0.35,0.04-0.74,0.13-1.16l2.9,0.04v-4.54c0-0.7,0.1-1.2,0.31-1.51c0.21-0.31,0.62-0.46,1.24-0.46h1.01l0.25,0.25v6.3
		L295.75,102.85z"/>
	<path class="st1" d="M299.82,104.2c0.25-0.73,0.67-1.26,1.26-1.6c1.51,0.59,2.46,1.83,2.86,3.74c1.23-2.49,3.11-3.74,5.63-3.74
		c0.56,0,1.19,0.06,1.89,0.17c0,1.15-0.22,2.06-0.67,2.73c-0.28-0.03-0.74-0.04-1.39-0.04c-2.38,0-4.13,1.33-5.25,3.99v14.03
		c-0.36,0.08-0.84,0.13-1.43,0.13s-1.05-0.04-1.39-0.13v-14.99C301.34,106.69,300.83,105.26,299.82,104.2z"/>
	<path class="st1" d="M330.23,122.3c-0.28,0.7-0.73,1.19-1.34,1.47c-1.34-0.53-2.16-1.54-2.44-3.02c-2.16,2.16-4.38,3.23-6.68,3.23
		c-1.91,0-3.39-0.61-4.45-1.83c-1.06-1.22-1.6-2.64-1.6-4.26c0-2.24,0.7-3.92,2.1-5.04c1.4-1.12,3.32-1.68,5.75-1.68
		c1.65,0,3.23,0.14,4.75,0.42v-2.23c0-2.94-1.3-4.41-3.91-4.41c-1.99,0-4.28,0.59-6.89,1.76c-0.28-0.22-0.53-0.56-0.74-1.01
		c-0.21-0.45-0.31-0.87-0.31-1.26c2.94-1.32,5.66-1.97,8.15-1.97c4.28,0,6.43,2.32,6.43,6.97v8.65
		C329.06,120.14,329.45,121.54,330.23,122.3z M316.67,117.51c0,1.23,0.3,2.21,0.9,2.92c0.6,0.71,1.43,1.07,2.5,1.07
		c1.06,0,2.16-0.31,3.28-0.92c1.12-0.62,2.11-1.51,2.98-2.69v-4.16c-1.57-0.22-3.13-0.34-4.68-0.34c-1.55,0-2.77,0.38-3.65,1.13
		S316.67,116.28,316.67,117.51z"/>
</g>
<g>
	<g>
		<path class="st1" d="M143.38,17.78c-0.32,0.59-0.81,1.01-1.47,1.28c-0.37,0.15-0.9,0.27-1.61,0.37c1.03,0.23,1.77,0.81,2.22,1.74
			c0.34,0.69,0.6,1.17,0.79,1.43c0.42,0.57,0.86,0.86,1.3,0.86c0.25,0,0.55-0.07,0.9-0.22l-0.59,1.58
			c-0.48,0.18-0.95,0.26-1.39,0.26c-0.98,0-1.87-0.47-2.66-1.41c-0.06-0.07-0.64-0.96-1.74-2.66c-0.62-0.95-1.18-1.43-1.69-1.43
			c-0.16,0-0.32,0.04-0.48,0.11v-2.11c0.75,0.26,1.4,0.4,1.96,0.4c1.31,0,1.96-0.59,1.96-1.78c0-0.4-0.1-0.78-0.31-1.14
			c-0.23-0.43-0.53-0.66-0.88-0.7h-2.86v-1.32h13.86v1.32h-1.56v9.64h-2.86v-5.72h-2.88C143.37,18.06,143.37,17.9,143.38,17.78z
			 M146.27,16.81v-2.46h-3.89c0.34,0.07,0.65,0.32,0.92,0.75c0.27,0.42,0.4,0.82,0.4,1.19c0,0.19-0.04,0.37-0.11,0.53H146.27z"/>
		<path class="st1" d="M163.58,13.03v1.32h-1.54v9.64h-2.82v-5.72h-1.8c0.03,1.53-0.14,2.68-0.51,3.48
			c-0.5,1.09-1.44,1.66-2.82,1.72c-1.14,0.04-2.05-0.23-2.71-0.82c-0.66-0.59-0.99-1.46-0.99-2.61c0-0.94,0.28-1.72,0.84-2.35
			c0.56-0.63,1.3-0.95,2.22-0.95c0.25,0,0.51,0.03,0.77,0.09l0.48,1.45c-0.21-0.09-0.4-0.13-0.57-0.13c-0.43,0-0.76,0.22-0.99,0.66
			c-0.19,0.35-0.29,0.76-0.29,1.23s0.1,0.89,0.29,1.25c0.23,0.47,0.56,0.7,0.99,0.7c0.53,0,0.79-0.45,0.79-1.34v-6.29h-4.66v-1.32
			H163.58z M157.42,14.35v2.46h1.8v-2.46H157.42z"/>
		<path class="st1" d="M164,23.99v-9.64h-0.79v-1.32h5.17v1.32h-1.56v9.64H164z"/>
		<path class="st1" d="M175.77,14.35h-7.79v-1.32h12.32v1.32h-1.54v9.64h-2.99v-1.34c-0.62,0.56-1.44,0.84-2.46,0.84
			c-1.07,0-2.08-0.28-3.04-0.85c-1.09-0.66-1.63-1.49-1.63-2.49c0-0.77,0.26-1.48,0.77-2.12c0.56-0.7,1.21-1.06,1.96-1.07h-2.86
			v-1.32h6.42v1.32h-0.9c-0.65-0.01-1.18,0.24-1.59,0.78s-0.63,1.13-0.63,1.78c0,0.61,0.21,1.08,0.62,1.4
			c0.41,0.32,0.93,0.48,1.56,0.48c0.75,0,1.34-0.23,1.78-0.68V14.35z"/>
		<path class="st1" d="M180.72,23.99v-9.64h-0.79v-1.32h5.17v1.32h-1.56v9.64H180.72z"/>
		<path class="st1" d="M195.55,14.35h-4.42c0.43,0.1,0.77,0.38,1.03,0.84c0.26,0.45,0.4,0.92,0.4,1.39c0,0.94-0.45,1.65-1.34,2.13
			c-0.67,0.37-1.54,0.57-2.6,0.62c0.56,0.18,0.98,0.45,1.25,0.81c0.06,0.07,0.28,0.45,0.66,1.14c0.72,1.29,1.42,1.94,2.09,1.94
			c0.47,0,1.11-0.24,1.91-0.7l-0.59,1.89c-0.79,0.26-1.52,0.4-2.18,0.4c-1.2,0-2.24-0.45-3.12-1.34c-0.31-0.32-0.89-1.15-1.76-2.49
			c-0.57-0.89-1.1-1.34-1.58-1.34c-0.12,0-0.23,0-0.35,0v-2.07c0.9,0.44,1.71,0.66,2.41,0.66c0.64,0,1.16-0.18,1.55-0.55
			c0.39-0.37,0.59-0.87,0.59-1.5c0-0.91-0.36-1.52-1.07-1.83h-3.72v-1.32h10.85V14.35z"/>
		<path class="st1" d="M196.1,23.81c0.06-0.25,0.03-0.65-0.09-1.21l1.65,0.33c0,0.59-0.18,1.1-0.53,1.54
			c-0.44,0.35-0.76,0.57-0.97,0.66l-0.7-0.48C195.81,24.41,196.02,24.13,196.1,23.81z"/>
		<path class="st1" d="M209.27,13.03v1.32h-1.54v9.64h-2.82v-9.64h-0.75v-1.32h0.84c-0.29-0.25-0.46-0.54-0.48-0.86
			c-0.12-1.23,0.34-2.16,1.36-2.77c0.78-0.47,1.84-0.73,3.19-0.79c1.36-0.06,2.85,0.18,4.44,0.73c1.85,0.63,3.29,1.51,4.33,2.64
			l-2.9,1.03c-1.08-1.82-2.63-2.73-4.64-2.73c-1.88,0-2.9,0.54-3.08,1.61c-0.07,0.41,0.1,0.79,0.51,1.14H209.27z"/>
		<path class="st1" d="M214.62,16.95c-0.31-0.18-0.62-0.26-0.95-0.26c-1.22,0.01-1.83,0.91-1.83,2.68c0,0.62,0.11,1.15,0.33,1.61
			c0.28,0.59,0.7,0.88,1.25,0.88c0.44,0,0.87-0.18,1.3-0.55v-6.95h-5.85v-1.32h10.21v1.32h-1.54v9.64h-2.82v-0.88
			c-0.31,0.26-0.9,0.4-1.76,0.4c-1.26,0-2.25-0.36-2.97-1.09c-0.72-0.73-1.09-1.73-1.12-3c-0.03-1.29,0.28-2.33,0.92-3.11
			c0.65-0.78,1.61-1.18,2.88-1.18c0.45,0,0.91,0.06,1.36,0.18L214.62,16.95z"/>
		<path class="st1" d="M226.48,14.35h-7.79v-1.32h12.32v1.32h-1.54v9.64h-2.99v-1.34c-0.62,0.56-1.44,0.84-2.46,0.84
			c-1.07,0-2.08-0.28-3.04-0.85c-1.09-0.66-1.63-1.49-1.63-2.49c0-0.77,0.26-1.48,0.77-2.12c0.56-0.7,1.21-1.06,1.96-1.07h-2.86
			v-1.32h6.42v1.32h-0.9c-0.65-0.01-1.18,0.24-1.59,0.78s-0.63,1.13-0.63,1.78c0,0.61,0.21,1.08,0.62,1.4
			c0.41,0.32,0.93,0.48,1.56,0.48c0.75,0,1.34-0.23,1.78-0.68V14.35z"/>
		<path class="st1" d="M231.43,23.99v-9.64h-0.79v-1.32h5.17v1.32h-1.56v9.64H231.43z"/>
		<path class="st1" d="M246.25,14.35h-4.42c0.42,0.1,0.77,0.38,1.03,0.84c0.26,0.45,0.4,0.92,0.4,1.39c0,0.94-0.45,1.65-1.34,2.13
			c-0.67,0.37-1.54,0.57-2.6,0.62c0.56,0.18,0.97,0.45,1.25,0.81c0.06,0.07,0.28,0.45,0.66,1.14c0.72,1.29,1.42,1.94,2.09,1.94
			c0.47,0,1.11-0.24,1.91-0.7l-0.59,1.89c-0.79,0.26-1.52,0.4-2.18,0.4c-1.2,0-2.24-0.45-3.12-1.34c-0.31-0.32-0.89-1.15-1.76-2.49
			c-0.57-0.89-1.1-1.34-1.58-1.34c-0.12,0-0.23,0-0.35,0v-2.07c0.9,0.44,1.71,0.66,2.41,0.66c0.64,0,1.16-0.18,1.55-0.55
			c0.39-0.37,0.59-0.87,0.59-1.5c0-0.91-0.36-1.52-1.07-1.83h-3.72v-1.32h10.85V14.35z"/>
		<path class="st1" d="M262.09,14.35h-4.42c0.42,0.1,0.77,0.38,1.03,0.84c0.26,0.45,0.4,0.92,0.4,1.39c0,0.94-0.45,1.65-1.34,2.13
			c-0.67,0.37-1.54,0.57-2.6,0.62c0.56,0.18,0.97,0.45,1.25,0.81c0.06,0.07,0.28,0.45,0.66,1.14c0.72,1.29,1.42,1.94,2.09,1.94
			c0.47,0,1.11-0.24,1.91-0.7l-0.59,1.89c-0.79,0.26-1.52,0.4-2.18,0.4c-1.2,0-2.24-0.45-3.12-1.34c-0.31-0.32-0.89-1.15-1.76-2.49
			c-0.57-0.89-1.1-1.34-1.58-1.34c-0.12,0-0.23,0-0.35,0v-2.07c0.9,0.44,1.71,0.66,2.41,0.66c0.64,0,1.16-0.18,1.55-0.55
			c0.39-0.37,0.59-0.87,0.59-1.5c0-0.91-0.36-1.52-1.07-1.83h-3.72v-1.32h10.85V14.35z"/>
		<path class="st1" d="M272.19,13.03v1.32h-1.54v9.64h-2.82v-9.64h-0.75v-1.32h0.84c-0.29-0.25-0.46-0.54-0.48-0.86
			c-0.12-1.23,0.34-2.16,1.36-2.77c0.78-0.47,1.84-0.73,3.19-0.79c1.36-0.06,2.85,0.18,4.44,0.73c1.85,0.63,3.29,1.51,4.33,2.64
			l-2.9,1.03c-1.08-1.82-2.63-2.73-4.64-2.73c-1.88,0-2.9,0.54-3.08,1.61c-0.07,0.41,0.1,0.79,0.51,1.14H272.19z"/>
		<path class="st1" d="M277.54,16.95c-0.31-0.18-0.62-0.26-0.95-0.26c-1.22,0.01-1.83,0.91-1.83,2.68c0,0.62,0.11,1.15,0.33,1.61
			c0.28,0.59,0.7,0.88,1.25,0.88c0.44,0,0.87-0.18,1.3-0.55v-6.95h-5.85v-1.32H282v1.32h-1.54v9.64h-2.82v-0.88
			c-0.31,0.26-0.9,0.4-1.76,0.4c-1.26,0-2.25-0.36-2.97-1.09c-0.72-0.73-1.09-1.73-1.12-3c-0.03-1.29,0.28-2.33,0.92-3.11
			c0.65-0.78,1.61-1.18,2.88-1.18c0.45,0,0.91,0.06,1.36,0.18L277.54,16.95z"/>
		<path class="st1" d="M285.11,20.31c1.13,0.25,1.88,0.78,2.25,1.61c0.47,1.07,1.11,1.61,1.92,1.61c0.31,0,0.7-0.1,1.16-0.29
			l-0.64,1.58c-0.54,0.19-1.06,0.29-1.54,0.29c-1.01,0-1.94-0.46-2.77-1.39c-0.62-0.88-1.2-1.69-1.76-2.42
			c-0.42-0.56-0.88-0.84-1.36-0.84c-0.18,0-0.35,0.04-0.53,0.11v-2.11c0.89,0.46,1.7,0.68,2.42,0.68c0.87,0,1.55-0.31,2.07-0.92
			c0.48-0.57,0.73-1.3,0.73-2.18c0-1.25-0.4-1.87-1.2-1.87c-0.49,0-0.73,0.4-0.73,1.19c0,0.82,0.31,1.23,0.92,1.23
			c0.09,0,0.18-0.01,0.27-0.04l-1.1,1.23c-0.13,0.03-0.28,0.04-0.44,0.04c-0.65,0-1.25-0.21-1.8-0.64c-0.6-0.45-0.9-1-0.9-1.63
			c0-0.4,0.14-0.8,0.42-1.21h-0.86v-1.32h1.25v0.59c0.73-0.63,1.78-0.92,3.15-0.88c1.58,0.06,2.69,0.72,3.32,1.98
			c0.28,0.56,0.42,1.1,0.42,1.63c0,0.65-0.2,1.28-0.6,1.91C288.34,19.54,286.99,20.22,285.11,20.31z M289.29,14.35v-1.32h2.07v1.32
			H289.29z"/>
		<path class="st1" d="M296.59,18.95c0-0.47-0.1-0.89-0.31-1.28c-0.25-0.47-0.59-0.7-1.03-0.7c-0.57,0-0.99,0.39-1.25,1.17
			c-0.19,0.56-0.29,1.18-0.29,1.87c0,2.16,0.76,3.23,2.29,3.23c0.69,0,1.52-0.23,2.49-0.68l-0.57,1.91
			c-0.73,0.19-1.44,0.29-2.13,0.29c-1.42,0-2.61-0.39-3.56-1.17c-1.01-0.85-1.52-1.97-1.52-3.37c0-1.36,0.31-2.49,0.92-3.39
			c0.72-1.01,1.73-1.52,3.04-1.52c0.73,0,1.41,0.19,2.04,0.56c0.62,0.37,1.06,0.89,1.31,1.55c0.09-0.53,0.34-0.95,0.77-1.25
			c0.42-0.31,0.91-0.46,1.45-0.46c0.54,0,0.96,0.15,1.25,0.44v-1.8h-11v-1.32h15.51v1.32h-1.54v9.64h-2.97v-6.01
			c-0.26-0.25-0.61-0.37-1.03-0.37c-0.72,0-1.08,0.47-1.08,1.41v2.2h-2.77V18.95z"/>
		<path class="st1" d="M296.7,9.27c0.51-0.21,1.11-0.31,1.8-0.31c1.19,0,2.09,0.32,2.71,0.95l3.04,3.1h-3.3l-1.67-1.87
			c-0.6-0.54-1.2-0.81-1.78-0.81c-0.29,0-0.56,0.07-0.79,0.22V9.27z"/>
		<path class="st1" d="M314.15,13.03v1.32h-3.74l3.7,5.32l-0.02,1.91c-0.73,0.97-1.81,1.45-3.23,1.45c-1.08,0-2.03-0.28-2.84-0.84
			c-0.92-0.63-1.39-1.46-1.39-2.49v-5.37h-1.01v-1.32H314.15z M312.85,20.49l-3.45-5.17v4.15c0,0.57,0.16,1.02,0.47,1.35
			c0.31,0.33,0.76,0.49,1.33,0.49C312.08,21.32,312.63,21.05,312.85,20.49z"/>
		<path class="st1" d="M313,23.99v-9.64h-0.79v-1.32h5.17v1.32h-1.56v9.64H313z"/>
		<path class="st1" d="M316.98,14.35v-1.32h10.49l0.02,1.32h-3.74c0.7,0.13,1.25,0.57,1.65,1.32c0.32,0.63,0.48,1.35,0.48,2.16
			c0,1.06-0.28,1.99-0.83,2.79s-1.32,1.38-2.32,1.72c-0.31,0.1-0.65,0.15-1.03,0.15c-0.94,0-1.8-0.25-2.6-0.75
			c-0.91-0.56-1.36-1.28-1.36-2.18v-5.21H316.98z M320.64,14.35v3.63c0,0.95,0.06,1.61,0.18,1.96c0.18,0.53,0.54,0.79,1.08,0.79
			c0.62,0,1.01-0.26,1.19-0.77c0.09-0.26,0.13-0.8,0.13-1.61c0-0.37-0.01-0.71-0.02-1.03c-0.03-0.73-0.14-1.26-0.33-1.58
			c-0.26-0.44-0.71-0.67-1.34-0.68l1.28-0.7H320.64z"/>
		<path class="st1" d="M327.85,23.99v-9.64h-0.79v-1.32h5.17v1.32h-1.56v9.64H327.85z"/>
	</g>
</g>
<g>
	<g>
		<path class="st1" d="M13.45,131.53H12.4v-1.02h1.05V131.53z M19.01,132.61c0,0.51-0.13,0.93-0.39,1.26
			c-0.29,0.36-0.67,0.54-1.15,0.53c0.6,0,1.1,0.24,1.5,0.71c0.37,0.45,0.55,0.99,0.55,1.61c0,0.83-0.32,1.46-0.95,1.9
			c-0.55,0.4-1.25,0.59-2.1,0.59c-1.6,0-2.93-0.63-3.99-1.9l1.3-1.55c0.35,1.24,0.98,1.85,1.86,1.85c0.34,0,0.65-0.11,0.92-0.32
			c0.27-0.21,0.41-0.49,0.41-0.83c0-1.05-0.5-1.58-1.5-1.58c-0.2,0-0.42,0.02-0.67,0.05v-1.26c0.13,0.06,0.28,0.08,0.45,0.08
			c0.4,0,0.73-0.11,1.01-0.34c0.27-0.23,0.42-0.54,0.44-0.93c0.01-0.28-0.12-0.51-0.39-0.69c-0.27-0.18-0.55-0.27-0.84-0.27
			c-0.62,0-1.27,0.31-1.94,0.92v-1.52c0.62-0.38,1.37-0.57,2.26-0.57c1,0,1.74,0.17,2.23,0.53
			C18.67,131.36,19.01,131.93,19.01,132.61z M19.06,130.51h4.86v1.02h-1.18v7.45h-2.16v-3.79h-1.51v-1.17h1.51v-2.48h-1.51V130.51z"
			/>
		<path class="st1" d="M28.05,133.38c1.01,0.41,1.51,1.12,1.5,2.14c-0.02,1.93-0.91,2.91-2.66,2.96c-0.88,0.02-1.59-0.24-2.13-0.8
			c-0.54-0.56-0.81-1.28-0.81-2.18c0-1.11,0.39-1.96,1.18-2.53c0.68-0.5,1.58-0.75,2.71-0.75c0.8,0,1.62,0.15,2.48,0.44v-1.14h-6.69
			v-1.02h9.99v1.02h-1.18v7.45h-2.13v-5.03C29.79,133.64,29.04,133.45,28.05,133.38z M27.05,134.28l0.9-0.76
			c-1.01,0.02-1.54,0.69-1.58,1.99c-0.01,0.33,0.04,0.64,0.17,0.93c0.15,0.39,0.37,0.58,0.65,0.58c0.49,0,0.71-0.49,0.68-1.46
			c-0.02-0.88-0.21-1.33-0.57-1.33C27.23,134.23,27.14,134.25,27.05,134.28z"/>
		<path class="st1" d="M37.96,135.08c0-0.36-0.08-0.69-0.23-0.99c-0.19-0.36-0.45-0.54-0.78-0.54c-0.43,0-0.75,0.3-0.95,0.9
			c-0.14,0.43-0.22,0.91-0.22,1.45c0,1.67,0.58,2.5,1.73,2.5c0.52,0,1.15-0.18,1.88-0.53l-0.43,1.48c-0.55,0.15-1.09,0.22-1.61,0.22
			c-1.08,0-1.97-0.3-2.69-0.9c-0.76-0.66-1.15-1.52-1.15-2.6c0-1.05,0.23-1.93,0.7-2.62c0.54-0.78,1.31-1.17,2.29-1.17
			c0.55,0,1.07,0.14,1.54,0.43s0.8,0.69,0.99,1.2c0.07-0.41,0.26-0.73,0.58-0.97c0.32-0.24,0.69-0.36,1.1-0.36s0.73,0.11,0.95,0.34
			v-1.39h-8.31v-1.02h11.72v1.02H43.9v7.45h-2.25v-4.64c-0.2-0.19-0.46-0.29-0.78-0.29c-0.54,0-0.81,0.36-0.81,1.09v1.7h-2.1V135.08
			z"/>
		<path class="st1" d="M45.38,138.98v-7.45h-0.6v-1.02h3.91v1.02h-1.18v7.45H45.38z"/>
		<path class="st1" d="M55.11,131.53v1.55h-3.69c-0.35,0-0.53,0.18-0.53,0.54c0,0.36,0.2,0.54,0.6,0.54h1.9
			c0.52,0,0.98,0.19,1.38,0.58c0.4,0.38,0.59,0.84,0.59,1.38c0,1.65-1.24,2.54-3.72,2.67c-0.04,0-0.07,0.01-0.07,0.03
			c0,0.07,0.36,0.2,1.08,0.41c0.38,0.1,0.74,0.15,1.08,0.15c0.25,0,0.5-0.03,0.73-0.08l-1.91,1.58c-0.43-0.14-1.06-0.55-1.88-1.24
			c-0.79-0.66-1.44-1.05-1.96-1.17l-0.05-1.87c0.83,0.68,1.67,1.02,2.52,1.02c0.57,0,1.1-0.19,1.59-0.56
			c0.21-0.16,0.32-0.37,0.32-0.64c0-0.26-0.1-0.51-0.3-0.76c-0.2-0.25-0.42-0.37-0.67-0.37h-1.3c-0.56,0-1.02-0.11-1.4-0.34
			c-0.46-0.27-0.68-0.67-0.68-1.21c-0.01-1.11,0.72-1.67,2.2-1.67h2.16v-0.53h-4.69v-1.02h8.11v1.02H55.11z"/>
		<path class="st1" d="M55.16,130.51h-2.13c-0.27-0.24-0.38-0.66-0.33-1.28c0.06-0.84,0.53-1.31,1.43-1.43
			c0.52-0.07,1.07-0.02,1.65,0.14l0.23,1.21c-0.27-0.19-0.5-0.29-0.71-0.29c-0.25,0-0.42,0.15-0.5,0.44
			c-0.04,0.17-0.07,0.32-0.07,0.44C54.72,130.11,54.87,130.36,55.16,130.51z"/>
		<path class="st1" d="M60.59,133.38c1.01,0.41,1.51,1.12,1.5,2.14c-0.02,1.93-0.91,2.91-2.66,2.96c-0.88,0.02-1.59-0.24-2.13-0.8
			c-0.54-0.56-0.81-1.28-0.81-2.18c0-1.11,0.39-1.96,1.18-2.53c0.68-0.5,1.58-0.75,2.71-0.75c0.8,0,1.62,0.15,2.48,0.44v-1.14h-6.69
			v-1.02h9.99v1.02h-1.18v7.45h-2.13v-5.03C62.33,133.64,61.58,133.45,60.59,133.38z M59.6,134.28l0.9-0.76
			c-1.01,0.02-1.54,0.69-1.58,1.99c-0.01,0.33,0.04,0.64,0.17,0.93c0.15,0.39,0.37,0.58,0.65,0.58c0.49,0,0.71-0.49,0.68-1.46
			c-0.02-0.88-0.21-1.33-0.57-1.33C59.77,134.23,59.68,134.25,59.6,134.28z"/>
		<path class="st1" d="M70.8,135.68v-4.15h-0.77v-1.02h8.45v1.02h-1.16v7.45h-2.01v-1.17c-0.49,0.41-1.06,0.61-1.73,0.61
			c-0.8,0-1.46-0.25-1.99-0.76S70.8,136.48,70.8,135.68z M75.31,136.24v-4.71H72.9v3.96c0,0.94,0.41,1.41,1.23,1.41
			C74.75,136.9,75.14,136.68,75.31,136.24z"/>
		<path class="st1" d="M82.05,130.51v1.02h-1.16v7.45h-2.13v-7.45h-0.57v-1.02h0.63c-0.22-0.19-0.34-0.41-0.37-0.66
			c-0.09-0.95,0.25-1.67,1.03-2.14c0.59-0.36,1.39-0.57,2.41-0.61c1.03-0.05,2.15,0.14,3.36,0.56c1.4,0.49,2.49,1.17,3.28,2.04
			l-2.2,0.8c-0.82-1.41-1.99-2.11-3.51-2.11c-1.42,0-2.2,0.41-2.33,1.24c-0.06,0.32,0.07,0.61,0.38,0.88H82.05z"/>
		<path class="st1" d="M87.12,136.56c-0.16-0.84-0.28-1.39-0.37-1.65c-0.22-0.65-0.54-1-0.96-1.05c-0.33-0.04-0.59,0.04-0.77,0.27
			c-0.18,0.23-0.27,0.52-0.27,0.87c0,0.24,0.04,0.5,0.12,0.8l-2.48-1c0.14-1.37,1.2-2.07,3.18-2.11c0.72-0.01,1.3,0.17,1.75,0.54
			c0.38,0.31,0.83,0.92,1.36,1.85v-3.55h-6.92v-1.02h10.28v1.02h-1.16v7.45h-2.19v-2.11c-2.11,1.87-3.78,2.8-5.02,2.8
			c-0.49,0-0.93-0.13-1.33-0.39l-0.28-1.62c0.64,0.41,1.17,0.61,1.58,0.61C84.37,138.28,85.54,137.71,87.12,136.56z"/>
		<path class="st1" d="M96.11,133.55c-0.3-0.18-0.57-0.27-0.81-0.27c-0.43,0-0.75,0.25-0.96,0.73c-0.16,0.36-0.23,0.8-0.23,1.31
			c0,0.5,0.09,0.93,0.28,1.3c0.23,0.46,0.56,0.68,1,0.68c0.28,0,0.56-0.09,0.82-0.27v-5.51h-4.47v-1.02h12.07v1.02h-5.44v1.07
			c0.51-0.33,1.07-0.49,1.68-0.49c0.89,0,1.6,0.29,2.15,0.87c0.54,0.58,0.81,1.32,0.8,2.23c-0.01,0.94-0.32,1.73-0.93,2.36
			c-0.61,0.63-1.37,0.95-2.29,0.95c-0.19,0-0.38-0.02-0.57-0.05L98.76,137c0.23,0.23,0.49,0.34,0.77,0.34
			c0.41,0,0.72-0.26,0.92-0.77c0.15-0.36,0.22-0.79,0.22-1.29c-0.01-1.2-0.45-1.8-1.32-1.8c-0.34,0-0.67,0.1-1,0.29v5.2H96.2v-0.68
			c-0.17,0.15-0.54,0.22-1.13,0.22c-0.98,0-1.77-0.25-2.37-0.77c-0.65-0.55-0.98-1.33-0.98-2.31c0-1,0.25-1.79,0.75-2.38
			c0.53-0.63,1.28-0.95,2.23-0.95c0.33,0,0.67,0.04,1.01,0.14L96.11,133.55z"/>
		<path class="st1" d="M104.09,138.98v-7.45h-0.6v-1.02h3.91v1.02h-1.18v7.45H104.09z"/>
	</g>
</g>
</svg>
